<?xml version="1.0" encoding="UTF-8"?>
<svg id="Camada_2" data-name="Camada 2" xmlns="http://www.w3.org/2000/svg" viewBox="0 0 856.46 302.29">
  <defs>
    <style>
      .cls-1, .cls-2 {
        isolation: isolate;
      }

      .cls-3, .cls-2 {
        fill: #fff;
      }

      .cls-4 {
        fill: #f4602d;
      }
    </style>
  </defs>
  <g id="Camada_1-2" data-name="Camada 1">
    <g>
      <path class="cls-2" d="M187.03,90.94c1.61,11.13,3.22,15.83,8.71,16.36l-.13.8h-34.05l.13-.8c8.04-.54,11.93-4.69,10.72-13.14l-2.68-19.31h-29.89l-4.15,7.38c-8.85,15.83-11.39,23.74-1.61,25.08l-.13.8h-22.52l.13-.8c6.43-1.48,12.2-9.66,21.45-25.75L174.29,8.45h1.07l11.66,82.49ZM141.59,71.62h27.75l-5.36-39.83-22.38,39.83ZM272.01,88.79c-6.84,13.14-14.48,20.92-21.71,20.92-7.64,0-7.77-7.38-6.03-15.42l7.77-33.93c1.74-7.38,3.08-14.75-2.28-14.75-10.05,0-27.08,29.24-34.18,62.5h-13.81l11.66-55.53c.67-2.95,1.34-6.44-.8-6.44-1.74,0-4.96,3.22-9.52,8.85l-.67-.54c5.76-11.4,13-18.24,19.57-18.24,7.51,0,7.24,7.51,5.63,15.42l-6.57,30.31c9.25-26.02,22.79-45.74,37.13-45.74,10.99,0,10.99,11.27,7.77,25.22l-7.37,31.92c-.67,2.82-1.61,6.44.67,6.44,1.88,0,6.03-3.49,12.06-11.53l.67.54ZM278.31,94.29l8.85-41.71c.67-2.95,1.34-6.44-.8-6.44-1.74,0-4.96,3.22-9.52,8.85l-.67-.54c5.76-11.4,13-18.24,19.57-18.24,7.51,0,7.24,7.51,5.63,15.42l-8.85,41.71c-.4,1.88-1.34,6.04.8,6.04,2.41,0,7.24-4.96,11.93-11.13l.67.54c-6.84,13.14-14.34,20.92-21.71,20.92-7.91,0-7.37-8.85-5.9-15.42ZM291.58,17.17c0-4.83,3.89-8.72,8.85-8.72s8.71,3.89,8.71,8.72-3.89,8.85-8.71,8.85-8.85-3.89-8.85-8.85ZM314.23,84.5l7.1-31.92c.54-2.68,1.34-6.44-.8-6.44-1.88,0-5.36,3.49-10.05,9.52l-.67-.54c6.43-12.34,13.67-18.91,20.24-18.91,7.51,0,6.97,8.85,5.5,15.42l-7.37,33.93c-1.88,8.58-1.07,15.42,5.23,15.42,13.81,0,25.2-27.09,25.2-44.93,0-7.11-1.88-14.22-6.03-17.44v-.8l11.66-1.61c3.62,2.95,5.23,7.64,5.23,12.88,0,21.33-27.34,60.62-45.44,60.62-11.26,0-12.87-11.13-9.79-25.22ZM385.94,73.63c-.54,3.35-.94,6.84-.94,10.33,0,12.47,4.42,17.97,11.66,17.97,7.77,0,16.22-5.9,23.59-14.89l.8.54c-9.92,15.69-20.24,22.27-30.96,22.27-11.53,0-19.57-7.38-19.57-22.8,0-20.52,14.21-50.83,42.09-50.83,10.72,0,15.95,4.29,15.95,10.86,0,12.2-16.49,18.91-42.62,26.56ZM386.34,71.35c20.64-7.38,30.16-14.89,30.16-25.48,0-4.29-1.47-7.64-6.03-7.64-9.52,0-20.24,15.56-24.13,33.13ZM483.79,37.29l-6.03,13.82h-.8c-1.61-.8-2.95-1.07-4.56-1.07-13.81,0-23.32,28.03-29.76,58.08h-13.81l11.66-55.53c.67-3.08,1.34-6.44-.8-6.44-1.74,0-4.96,3.22-9.52,8.85l-.67-.54c5.76-11.4,13-18.24,19.57-18.24,7.51,0,7.24,7.51,5.5,15.42l-5.23,24.41c6.84-21.86,16.49-39.83,28.68-39.83,1.88,0,3.89.13,5.76,1.07ZM473.33,102.61l3.75-11.8h.8c2.68,8.99,10.72,16.36,19.3,16.36,6.7,0,11.53-5.36,11.53-12.07s-4.82-10.73-11.39-16.09l-3.75-3.08c-4.82-3.89-9.52-8.05-9.52-17.44,0-12.47,9.52-22.26,22.92-22.26,6.84,0,13.14,2.68,17.83,5.23l-2.68,11.4h-.8c-2.81-6.98-9.52-14.08-17.29-14.08-6.43,0-10.45,5.63-10.45,11.27,0,6.44,4.42,10.33,8.71,13.95l3.75,3.08c6.97,5.63,12.2,10.19,12.2,19.85,0,13.14-10.59,22.8-25.33,22.8-7.77,0-15.41-2.82-19.57-7.11ZM593.97,88.79c-6.84,13.14-14.34,20.92-21.71,20.92-7.91,0-7.37-8.85-5.9-15.42l2.81-12.88c-7.51,18.37-18.5,28.3-29.35,28.3-8.85,0-14.34-7.38-14.34-20.52,0-24.28,17.96-52.98,43.43-52.98,6.57,0,11.66,1.88,14.61,5.63l8.31-4.83h.67l-11.93,56.33c-.4,1.74-1.34,6.04.8,6.04,2.41,0,7.24-4.96,11.93-11.13l.67.54ZM573.73,58.75c.54-2.55.8-5.1.8-7.91,0-7.24-1.88-12.74-8.04-12.74-13.27,0-26.54,27.63-26.54,49.09,0,9.66,2.81,14.62,7.51,14.62,8.85,0,21.58-19.45,26.27-43.05ZM566.09,29.51l-.54-.4c4.42-7.38,13.67-24.95,16.08-27.23,1.34-1.21,2.82-1.88,4.29-1.88,2.95,0,5.5,2.28,5.5,5.36,0,1.88-1.21,3.49-2.14,4.56-3.48,3.49-16.89,14.48-23.19,19.58ZM652.68,37.29l-6.03,13.82h-.8c-1.61-.8-2.95-1.07-4.56-1.07-13.81,0-23.32,28.03-29.76,58.08h-13.81l11.66-55.53c.67-3.08,1.34-6.44-.8-6.44-1.74,0-4.96,3.22-9.52,8.85l-.67-.54c5.76-11.4,13-18.24,19.57-18.24,7.51,0,7.24,7.51,5.5,15.42l-5.23,24.41c6.84-21.86,16.49-39.83,28.68-39.83,1.88,0,3.89.13,5.76,1.07ZM651.34,94.29l8.85-41.71c.67-2.95,1.34-6.44-.8-6.44-1.74,0-4.96,3.22-9.52,8.85l-.67-.54c5.76-11.4,13-18.24,19.57-18.24,7.51,0,7.24,7.51,5.63,15.42l-8.85,41.71c-.4,1.88-1.34,6.04.8,6.04,2.41,0,7.24-4.96,11.93-11.13l.67.54c-6.84,13.14-14.34,20.92-21.71,20.92-7.91,0-7.37-8.85-5.9-15.42ZM664.61,17.17c0-4.83,3.89-8.72,8.85-8.72s8.71,3.89,8.71,8.72-3.89,8.85-8.71,8.85-8.85-3.89-8.85-8.85ZM682.43,81.68c0-22.27,15.68-45.47,37.13-45.47,15.28,0,25.47,10.86,25.47,28.17,0,23.07-15.95,45.33-36.99,45.33-15.28,0-25.6-10.73-25.6-28.03ZM731.22,57.14c0-11.27-3.22-19.05-10.99-19.05-14.88,0-23.86,31.52-23.86,50.7,0,11.13,3.22,19.05,10.99,19.05,14.88,0,23.86-31.52,23.86-50.7Z"/>
      <g class="cls-1">
        <g class="cls-1">
          <path class="cls-3" d="M308.49,300.25l.86-1.82c1.21,1.09,3.28,1.88,5.37,1.88,2.81,0,4.02-1.09,4.02-2.51,0-3.98-9.86-1.47-9.86-7.52,0-2.51,1.95-4.65,6.23-4.65,1.91,0,3.88.51,5.23,1.44l-.77,1.86c-1.42-.91-3.02-1.33-4.46-1.33-2.77,0-3.95,1.16-3.95,2.58,0,3.98,9.86,1.49,9.86,7.47,0,2.49-2,4.63-6.3,4.63-2.49,0-4.93-.84-6.23-2.05Z"/>
          <path class="cls-3" d="M336.04,285.82h2.32v16.29h-2.32v-16.29Z"/>
          <path class="cls-3" d="M368.87,285.82v16.29h-1.91l-9.76-12.15v12.15h-2.32v-16.29h1.91l9.76,12.15v-12.15h2.32Z"/>
          <path class="cls-3" d="M384.06,293.96c0-4.82,3.67-8.33,8.62-8.33,2.51,0,4.7.86,6.18,2.54l-1.51,1.47c-1.26-1.33-2.79-1.93-4.58-1.93-3.67,0-6.39,2.65-6.39,6.26s2.72,6.26,6.39,6.26c1.79,0,3.32-.63,4.58-1.95l1.51,1.47c-1.49,1.68-3.67,2.56-6.21,2.56-4.93,0-8.6-3.51-8.6-8.33Z"/>
          <path class="cls-3" d="M425.63,300.08v2.02h-11.81v-16.29h11.48v2.02h-9.16v5h8.16v1.98h-8.16v5.26h9.49Z"/>
          <path class="cls-3" d="M469.02,300.08v2.02h-11.69v-1.58l6.63-6.4c1.72-1.68,2.05-2.7,2.05-3.72,0-1.68-1.19-2.7-3.46-2.7-1.74,0-3.16.56-4.16,1.77l-1.58-1.37c1.26-1.56,3.42-2.47,5.95-2.47,3.39,0,5.58,1.75,5.58,4.54,0,1.58-.47,3-2.67,5.12l-4.97,4.79h8.35Z"/>
          <path class="cls-3" d="M482.48,293.96c0-5.31,2.84-8.33,6.65-8.33s6.63,3.02,6.63,8.33-2.84,8.33-6.63,8.33-6.65-3.02-6.65-8.33ZM493.43,293.96c0-4.16-1.77-6.26-4.3-6.26s-4.32,2.09-4.32,6.26,1.77,6.26,4.32,6.26,4.3-2.09,4.3-6.26Z"/>
          <path class="cls-3" d="M520.99,300.08v2.02h-11.69v-1.58l6.63-6.4c1.72-1.68,2.05-2.7,2.05-3.72,0-1.68-1.19-2.7-3.46-2.7-1.74,0-3.16.56-4.16,1.77l-1.58-1.37c1.26-1.56,3.42-2.47,5.95-2.47,3.39,0,5.58,1.75,5.58,4.54,0,1.58-.47,3-2.67,5.12l-4.97,4.79h8.35Z"/>
          <path class="cls-3" d="M534.45,293.96c0-5.31,2.84-8.33,6.65-8.33s6.63,3.02,6.63,8.33-2.84,8.33-6.63,8.33-6.65-3.02-6.65-8.33ZM545.4,293.96c0-4.16-1.77-6.26-4.3-6.26s-4.32,2.09-4.32,6.26,1.77,6.26,4.32,6.26,4.3-2.09,4.3-6.26Z"/>
        </g>
      </g>
      <g>
        <g>
          <path class="cls-4" d="M126.03,182.13c0-43.5,31.82-74.67,75.32-74.67s75.53,31.17,75.53,74.67-31.81,74.67-75.53,74.67-75.32-31.17-75.32-74.67ZM245.28,182.13c0-27.06-17.31-47.4-43.93-47.4s-43.72,20.34-43.72,47.4,17.1,47.4,43.72,47.4,43.93-20.56,43.93-47.4Z"/>
          <path class="cls-4" d="M287.48,196.63v-86.79h31.17v85.71c0,20.13,11.69,33.98,33.98,33.98s33.76-13.85,33.76-33.98v-85.71h31.38v86.57c0,35.93-21.21,60.38-65.15,60.38s-65.14-24.67-65.14-60.17Z"/>
          <path class="cls-4" d="M428.16,182.13c0-44.37,33.55-74.67,76.83-74.67,31.82,0,50.21,17.31,60.38,35.28l-26.41,12.99c-6.06-11.69-19.04-20.99-33.98-20.99-26.19,0-45.23,20.13-45.23,47.4s19.05,47.4,45.23,47.4c14.93,0,27.92-9.09,33.98-20.99l26.41,12.77c-10.39,17.96-28.57,35.5-60.38,35.5-43.29,0-76.83-30.3-76.83-74.67Z"/>
          <path class="cls-4" d="M565.8,182.13c0-43.5,31.82-74.67,75.32-74.67s75.53,31.17,75.53,74.67-31.82,74.67-75.53,74.67-75.32-31.17-75.32-74.67ZM685.05,182.13c0-27.06-17.31-47.4-43.93-47.4s-43.72,20.34-43.72,47.4,17.1,47.4,43.72,47.4,43.93-20.56,43.93-47.4Z"/>
          <path class="cls-4" d="M826.81,254.2l-68.82-94.15v94.15h-30.73V109.85h31.6l66.88,90.68v-90.68h30.73v144.36h-29.65Z"/>
        </g>
        <polygon class="cls-4" points="106.83 109.85 70.21 168.79 35.11 109.85 0 109.85 51.15 199.04 19.43 254.2 55.44 254.2 141.48 109.85 106.83 109.85"/>
      </g>
    </g>
  </g>
</svg>