<?xml version="1.0" encoding="UTF-8"?>
<svg id="Camada_2" data-name="Camada 2" xmlns="http://www.w3.org/2000/svg" xmlns:xlink="http://www.w3.org/1999/xlink" viewBox="0 0 700 226.42">
  <defs>
    <style>
      .cls-1 {
        fill: url(#Gradiente_sem_nome_22);
      }

      .cls-2 {
        fill: #fff;
      }
    </style>
    <linearGradient id="Gradiente_sem_nome_22" data-name="Gradiente sem nome 22" x1="0" y1="113.21" x2="195.69" y2="113.21" gradientUnits="userSpaceOnUse">
      <stop offset="0" stop-color="#e58e44"/>
      <stop offset=".51" stop-color="#e27b44"/>
      <stop offset="1" stop-color="#e06944"/>
    </linearGradient>
  </defs>
  <g id="Camada_1-2" data-name="Camada 1">
    <g>
      <path class="cls-1" d="M195.69,126.07L34.21,222.52v-21.15l44.64-27.53c.21-.13.46.09.34-.45l-46.32-27.59v-21.56l64.8,37.8,98.01-57.14v21.15ZM32.87,81.94v21.56l64.83,38.98,97.98-58.72v-21.42l-98.12,57-64.69-37.39ZM102.16,202.84l-21.74,12.99,17.14,10.59,98.12-57.05v-20.22l-93.52,53.69ZM97.56,0L0,56.42v113.05l26.03,14.99,17.69-10.28-26.08-15.29v-92.02S97.56,20.62,97.56,20.62l67.24,38.51,18.03-10.4L97.56,0Z"/>
      <g>
        <g>
          <path class="cls-2" d="M284.32,178.91l-.66-1.83h-4.64l-.68,1.83h-2.63l4.18-10.81h2.89l4.17,10.81h-2.63ZM281.34,170.4l-1.69,4.65h3.37l-1.69-4.65Z"/>
          <path class="cls-2" d="M300.55,178.91l-2.12-3.84h-1.69v3.84h-2.3v-10.81h5.06c2.25,0,3.63,1.48,3.63,3.49s-1.2,2.93-2.37,3.21l2.43,4.12h-2.64ZM300.77,171.58c0-.91-.7-1.46-1.62-1.46h-2.42v2.92h2.42c.92,0,1.62-.55,1.62-1.46Z"/>
          <path class="cls-2" d="M310.83,173.51c0-3.26,2.38-5.59,5.64-5.59s5.66,2.33,5.66,5.59c0,1.52-.52,2.85-1.41,3.83l.79.92-1.6,1.31-.88-1.01c-.76.34-1.62.54-2.56.54-3.26,0-5.64-2.33-5.64-5.59ZM317.6,176.88l-1.18-1.39,1.59-1.31,1.2,1.41c.36-.58.55-1.3.55-2.07,0-2.03-1.3-3.55-3.29-3.55s-3.27,1.52-3.27,3.55,1.28,3.55,3.27,3.55c.41,0,.78-.06,1.13-.18Z"/>
          <path class="cls-2" d="M330.23,174.59v-6.5h2.33v6.42c0,1.51.88,2.55,2.55,2.55s2.53-1.04,2.53-2.55v-6.42h2.35v6.48c0,2.69-1.59,4.52-4.88,4.52s-4.88-1.85-4.88-4.51Z"/>
          <path class="cls-2" d="M348.6,178.91v-10.81h2.3v10.81h-2.3Z"/>
          <path class="cls-2" d="M362.02,178.91v-8.79h-3.16v-2.03h8.62v2.03h-3.14v8.79h-2.32Z"/>
          <path class="cls-2" d="M375.45,178.91v-10.81h7.65v2.03h-5.35v2.29h5.24v2.03h-5.24v2.45h5.35v2.03h-7.65Z"/>
          <path class="cls-2" d="M393.88,178.91v-8.79h-3.16v-2.03h8.62v2.03h-3.14v8.79h-2.32Z"/>
          <path class="cls-2" d="M407.3,174.59v-6.5h2.33v6.42c0,1.51.88,2.55,2.55,2.55s2.53-1.04,2.53-2.55v-6.42h2.35v6.48c0,2.69-1.59,4.52-4.88,4.52s-4.88-1.85-4.88-4.51Z"/>
          <path class="cls-2" d="M431.78,178.91l-2.12-3.84h-1.69v3.84h-2.3v-10.81h5.06c2.25,0,3.63,1.48,3.63,3.49s-1.2,2.93-2.37,3.21l2.43,4.12h-2.64ZM432.01,171.58c0-.91-.7-1.46-1.62-1.46h-2.42v2.92h2.42c.92,0,1.62-.55,1.62-1.46Z"/>
          <path class="cls-2" d="M450.03,178.91l-.66-1.83h-4.64l-.68,1.83h-2.63l4.18-10.81h2.89l4.17,10.81h-2.63ZM447.05,170.4l-1.69,4.65h3.37l-1.69-4.65Z"/>
          <path class="cls-2" d="M477.43,178.91c-.23-.21-.5-.49-.81-.81-.81.62-1.8,1.01-2.95,1.01-1.98,0-3.57-1.04-3.57-3.13,0-1.64,1.09-2.5,2.32-3.11-.42-.79-.71-1.6-.71-2.33,0-1.46,1.3-2.59,3.1-2.59,1.52,0,2.84.84,2.84,2.29,0,1.65-1.33,2.35-2.66,2.97.32.44.66.84.94,1.17.31.39.62.75.91,1.1.45-.7.79-1.46.99-2.09l1.65.76c-.39.86-.89,1.78-1.51,2.61.65.7,1.33,1.41,2.09,2.17h-2.63ZM475.52,176.93c-.49-.54-.94-1.05-1.2-1.38-.36-.44-.73-.92-1.09-1.43-.57.41-.94.91-.94,1.65,0,1.05.78,1.7,1.67,1.7.55,0,1.09-.21,1.56-.55ZM474.24,172.03c.91-.44,1.62-.91,1.62-1.7,0-.57-.42-.91-.96-.91-.63,0-1.13.49-1.13,1.15,0,.44.19.94.47,1.46Z"/>
          <path class="cls-2" d="M498.38,178.91v-10.81h7.65v2.03h-5.35v2.29h5.24v2.03h-5.24v2.45h5.35v2.03h-7.65Z"/>
          <path class="cls-2" d="M521.77,178.91l-5.15-7.05v7.05h-2.3v-10.81h2.37l5.01,6.79v-6.79h2.3v10.81h-2.22Z"/>
          <path class="cls-2" d="M532.1,173.51c0-3.42,2.59-5.59,5.75-5.59,2.25,0,3.66,1.13,4.47,2.42l-1.91,1.04c-.49-.76-1.41-1.41-2.56-1.41-1.96,0-3.39,1.51-3.39,3.55s1.43,3.55,3.39,3.55c.96,0,1.86-.42,2.3-.83v-1.3h-2.85v-2.01h5.15v4.15c-1.1,1.23-2.64,2.04-4.6,2.04-3.16,0-5.75-2.2-5.75-5.61Z"/>
          <path class="cls-2" d="M550.77,178.91v-10.81h7.65v2.03h-5.35v2.29h5.24v2.03h-5.24v2.45h5.35v2.03h-7.65Z"/>
          <path class="cls-2" d="M574.17,178.91l-5.15-7.05v7.05h-2.3v-10.81h2.37l5.01,6.79v-6.79h2.3v10.81h-2.22Z"/>
          <path class="cls-2" d="M592.42,178.91v-4.54h-5.11v4.54h-2.3v-10.81h2.3v4.25h5.11v-4.25h2.32v10.81h-2.32Z"/>
          <path class="cls-2" d="M610.8,178.91l-.66-1.83h-4.64l-.68,1.83h-2.63l4.18-10.81h2.89l4.17,10.81h-2.63ZM607.82,170.4l-1.69,4.65h3.37l-1.69-4.65Z"/>
          <path class="cls-2" d="M627.03,178.91l-2.12-3.84h-1.69v3.84h-2.3v-10.81h5.06c2.25,0,3.63,1.48,3.63,3.49s-1.2,2.93-2.37,3.21l2.43,4.12h-2.64ZM627.26,171.58c0-.91-.7-1.46-1.62-1.46h-2.42v2.92h2.42c.92,0,1.62-.55,1.62-1.46Z"/>
          <path class="cls-2" d="M637.83,178.91v-10.81h2.3v10.81h-2.3Z"/>
          <path class="cls-2" d="M656.21,178.91l-.66-1.83h-4.64l-.68,1.83h-2.63l4.18-10.81h2.89l4.17,10.81h-2.63ZM653.23,170.4l-1.69,4.65h3.37l-1.69-4.65Z"/>
        </g>
        <g>
          <g>
            <path class="cls-2" d="M303.04,101.58c0-23.64,17.29-40.58,40.93-40.58s41.05,16.94,41.05,40.58-17.29,40.58-41.05,40.58-40.93-16.94-40.93-40.58ZM367.85,101.58c0-14.7-9.41-25.76-23.88-25.76s-23.76,11.05-23.76,25.76,9.29,25.76,23.76,25.76,23.88-11.17,23.88-25.76Z"/>
            <path class="cls-2" d="M390.79,109.46v-47.16h16.94v46.58c0,10.94,6.35,18.47,18.47,18.47s18.35-7.53,18.35-18.47v-46.58h17.06v47.05c0,19.52-11.53,32.82-35.4,32.82s-35.4-13.41-35.4-32.7Z"/>
            <path class="cls-2" d="M467.24,101.58c0-24.11,18.23-40.58,41.76-40.58,17.29,0,27.29,9.41,32.82,19.17l-14.35,7.06c-3.29-6.35-10.35-11.41-18.47-11.41-14.23,0-24.58,10.94-24.58,25.76s10.35,25.76,24.58,25.76c8.12,0,15.17-4.94,18.47-11.41l14.35,6.94c-5.65,9.76-15.53,19.29-32.82,19.29-23.52,0-41.76-16.47-41.76-40.58Z"/>
            <path class="cls-2" d="M542.04,101.58c0-23.64,17.29-40.58,40.93-40.58s41.05,16.94,41.05,40.58-17.29,40.58-41.05,40.58-40.93-16.94-40.93-40.58ZM606.85,101.58c0-14.7-9.41-25.76-23.88-25.76s-23.76,11.05-23.76,25.76,9.29,25.76,23.76,25.76,23.88-11.17,23.88-25.76Z"/>
            <path class="cls-2" d="M683.89,140.75l-37.4-51.16v51.16h-16.7V62.3h17.17l36.34,49.28v-49.28h16.7v78.45h-16.11Z"/>
          </g>
          <polygon class="cls-2" points="292.61 62.3 272.71 94.33 253.63 62.3 234.55 62.3 262.35 110.77 245.11 140.75 264.68 140.75 311.44 62.3 292.61 62.3"/>
        </g>
      </g>
    </g>
  </g>
</svg>